<?xml version="1.0" standalone="no"?>
<!DOCTYPE svg PUBLIC "-//W3C//DTD SVG 20010904//EN"
 "http://www.w3.org/TR/2001/REC-SVG-20010904/DTD/svg10.dtd">
<svg version="1.0" xmlns="http://www.w3.org/2000/svg"
 width="256.000000pt" height="256.000000pt" viewBox="0 0 256.000000 256.000000"
 preserveAspectRatio="xMidYMid meet">
<metadata>
Created by potrace 1.14, written by Peter Selinger 2001-2017
</metadata>
<g transform="translate(0.000000,256.000000) scale(0.100000,-0.100000)"
fill="#000000" stroke="none">
<path d="M490 2551 c-93 -29 -168 -109 -185 -199 -9 -48 -6 -2126 4 -2158 21
-72 71 -133 141 -170 33 -18 74 -19 830 -19 l795 0 40 22 c69 37 126 110 140
179 3 16 6 502 6 1080 0 1132 2 1090 -52 1168 -12 18 -37 43 -55 55 -74 51
-72 51 -883 50 -416 0 -767 -4 -781 -8z"/>
</g>
</svg>
